<svg width="12" height="24" viewBox="0 0 12 24" fill="none" xmlns="http://www.w3.org/2000/svg">
  <path d="M9.89747 23.0833C9.66093 23.0841 9.42722 23.0319 9.2135 22.9305C8.99978 22.8292 8.8115 22.6812 8.66247 22.4975L1.01497 12.9975C0.782095 12.7142 0.654785 12.3588 0.654785 11.9921C0.654785 11.6253 0.782095 11.27 1.01497 10.9867L8.93164 1.48666C9.20039 1.16331 9.58659 0.959974 10.0053 0.921373C10.4239 0.882771 10.8408 1.01207 11.1641 1.28082C11.4875 1.54957 11.6908 1.93577 11.7294 2.35444C11.768 2.77312 11.6387 3.18998 11.37 3.51332L4.29247 12L11.1325 20.4867C11.3261 20.7191 11.4491 21.0021 11.4869 21.3022C11.5247 21.6023 11.4757 21.907 11.3458 22.1801C11.2159 22.4533 11.0104 22.6836 10.7538 22.8436C10.4971 23.0037 10.1999 23.0869 9.89747 23.0833Z" fill="black" fill-opacity="0.63" />
</svg>