<svg width="49" height="51" viewBox="0 0 49 51" fill="none" xmlns="http://www.w3.org/2000/svg">
<path d="M38.6508 11.7751C33.9204 8.5498 28.0791 10.0549 24.9255 13.7461C21.7719 10.0549 15.9306 8.53188 11.2002 11.7751C8.69168 13.4952 7.11489 16.398 7.00738 19.462C6.75653 26.4142 12.9204 31.9867 22.3274 40.5337L22.5065 40.695C23.8683 41.9313 25.9647 41.9313 27.3265 40.677L27.5236 40.4979C36.9306 31.9688 43.0765 26.3963 42.8436 19.444C42.7361 16.398 41.1593 13.4952 38.6508 11.7751ZM25.1047 37.8639L24.9255 38.0431L24.7463 37.8639C16.2173 30.1412 10.591 25.0345 10.591 19.8562C10.591 16.2725 13.2787 13.5848 16.8623 13.5848C19.6217 13.5848 22.3094 15.3587 23.2591 17.8135H26.6098C27.5415 15.3587 30.2293 13.5848 32.9886 13.5848C36.5723 13.5848 39.26 16.2725 39.26 19.8562C39.26 25.0345 33.6337 30.1412 25.1047 37.8639Z" fill="#41744C"/>
</svg>
