<svg width="37" height="32" viewBox="0 0 37 32" fill="none" xmlns="http://www.w3.org/2000/svg">
<path d="M32.2243 2.1487C27.4943 -1.0763 21.6534 0.428701 18.5001 4.11953C15.3468 0.428701 9.50593 -1.09422 4.77593 2.1487C2.2676 3.8687 0.690931 6.7712 0.583431 9.83495C0.332597 16.7866 6.49593 22.3587 15.9022 30.905L16.0813 31.0662C17.443 32.3025 19.5393 32.3025 20.9009 31.0483L21.098 30.8691C30.5043 22.3408 36.6497 16.7687 36.4168 9.81704C36.3093 6.7712 34.7326 3.8687 32.2243 2.1487ZM18.6793 28.2354L18.5001 28.4145L18.3209 28.2354C9.7926 20.5133 4.16676 15.407 4.16676 10.2291C4.16676 6.64578 6.85426 3.95828 10.4376 3.95828C13.1968 3.95828 15.8843 5.73204 16.8338 8.18662H20.1843C21.1159 5.73204 23.8034 3.95828 26.5626 3.95828C30.1459 3.95828 32.8334 6.64578 32.8334 10.2291C32.8334 15.407 27.2076 20.5133 18.6793 28.2354Z" fill="#41744C"/>
</svg>
