<svg width="23" height="23" viewBox="0 0 23 23" fill="none" xmlns="http://www.w3.org/2000/svg">
<path d="M21.742 19.1196C22.1283 19.5489 22.1283 20.1928 21.699 20.5792L20.4971 21.7812C20.1107 22.2105 19.4668 22.2105 19.0375 21.7812L14.7876 17.5313C14.573 17.3167 14.4871 17.0591 14.4871 16.8015V16.0718C12.9417 17.2737 11.0529 17.9606 8.99237 17.9606C4.05565 17.9606 0.0633545 13.9683 0.0633545 9.03158C0.0633545 4.13779 4.05565 0.102563 8.99237 0.102563C13.8862 0.102563 17.9214 4.13779 17.9214 9.03158C17.9214 11.135 17.1916 13.0239 16.0326 14.5264H16.7194C16.977 14.5264 17.2345 14.6551 17.4492 14.8269L21.742 19.1196ZM8.99237 14.5264C11.9973 14.5264 14.4871 12.0795 14.4871 9.03158C14.4871 6.02662 11.9973 3.5368 8.99237 3.5368C5.94449 3.5368 3.49759 6.02662 3.49759 9.03158C3.49759 12.0795 5.94449 14.5264 8.99237 14.5264Z" fill="#D9D9D9"/>
</svg>
