<svg width="29" height="29" viewBox="0 0 29 29" fill="none" xmlns="http://www.w3.org/2000/svg">
<path d="M22.4197 27.4091H4.34696C3.66221 27.4091 3.00552 27.1371 2.52133 26.6529C2.03715 26.1687 1.76514 25.512 1.76514 24.8272V6.75452M27.5833 15.7909L25.9103 14.1179C25.3269 13.5345 24.5356 13.2068 23.7106 13.2068C22.8856 13.2068 22.0943 13.5345 21.5109 14.1179L13.3833 22.2454M17.256 9.33634C17.256 10.7622 16.1001 11.9182 14.6742 11.9182C13.2483 11.9182 12.0924 10.7622 12.0924 9.33634C12.0924 7.91044 13.2483 6.75452 14.6742 6.75452C16.1001 6.75452 17.256 7.91044 17.256 9.33634ZM9.51059 1.59088H25.0015C26.4274 1.59088 27.5833 2.7468 27.5833 4.1727V19.6636C27.5833 21.0895 26.4274 22.2454 25.0015 22.2454H9.51059C8.08469 22.2454 6.92877 21.0895 6.92877 19.6636V4.1727C6.92877 2.7468 8.08469 1.59088 9.51059 1.59088Z" stroke="#41744C" stroke-width="2.58182" stroke-linecap="round" stroke-linejoin="round"/>
</svg>
