<svg width="32" height="27" viewBox="0 0 32 27" fill="none" xmlns="http://www.w3.org/2000/svg">
<path d="M21.9999 8.81268C22.9736 10.1645 23.4999 11.8087 23.4999 13.4984C23.4999 15.1882 22.9736 16.8324 21.9999 18.1842M27.0459 23.4385C28.2995 22.1331 29.2939 20.5835 29.9724 18.878C30.6508 17.1724 31 15.3445 31 13.4984C31 11.6524 30.6508 9.82443 29.9724 8.11892C29.2939 6.4134 28.2995 4.86373 27.0459 3.55839M14.4999 2.09956C14.4996 1.88201 14.4375 1.66942 14.3212 1.48863C14.205 1.30784 14.04 1.16694 13.8469 1.08373C13.6539 1.00052 13.4415 0.978715 13.2366 1.02107C13.0316 1.06343 12.8433 1.16805 12.6955 1.32173L7.61947 6.60569C7.42358 6.81089 7.19053 6.97357 6.93382 7.0843C6.6771 7.19503 6.40184 7.25161 6.12398 7.25077H2.49999C2.10217 7.25077 1.72064 7.41533 1.43934 7.70824C1.15803 8.00116 1 8.39844 1 8.81268V18.1842C1 18.5984 1.15803 18.9957 1.43934 19.2886C1.72064 19.5815 2.10217 19.7461 2.49999 19.7461H6.12398C6.40184 19.7453 6.6771 19.8018 6.93382 19.9126C7.19053 20.0233 7.42358 20.186 7.61947 20.3912L12.694 25.6767C12.8419 25.831 13.0304 25.9361 13.2357 25.9788C13.4411 26.0214 13.6539 25.9996 13.8473 25.9161C14.0408 25.8326 14.206 25.6912 14.3222 25.5099C14.4384 25.3285 14.5002 25.1153 14.4999 24.8973V2.09956Z" stroke="#41744C" stroke-width="2" stroke-linecap="round" stroke-linejoin="round"/>
</svg>
