<svg width="49" height="51" viewBox="0 0 49 51" fill="none" xmlns="http://www.w3.org/2000/svg">
<path d="M30.9999 21.8127C31.9736 23.1645 32.4999 24.8087 32.4999 26.4984C32.4999 28.1882 31.9736 29.8324 30.9999 31.1842M36.0459 36.4385C37.2995 35.1331 38.2939 33.5835 38.9724 31.878C39.6508 30.1724 40 28.3445 40 26.4984C40 24.6524 39.6508 22.8244 38.9724 21.1189C38.2939 19.4134 37.2995 17.8637 36.0459 16.5584M23.4999 15.0996C23.4996 14.882 23.4375 14.6694 23.3212 14.4886C23.205 14.3078 23.04 14.1669 22.8469 14.0837C22.6539 14.0005 22.4415 13.9787 22.2366 14.0211C22.0316 14.0634 21.8433 14.168 21.6955 14.3217L16.6195 19.6057C16.4236 19.8109 16.1905 19.9736 15.9338 20.0843C15.6771 20.195 15.4018 20.2516 15.124 20.2508H11.5C11.1022 20.2508 10.7206 20.4153 10.4393 20.7082C10.158 21.0012 10 21.3984 10 21.8127V31.1842C10 31.5984 10.158 31.9957 10.4393 32.2886C10.7206 32.5815 11.1022 32.7461 11.5 32.7461H15.124C15.4018 32.7453 15.6771 32.8018 15.9338 32.9126C16.1905 33.0233 16.4236 33.186 16.6195 33.3912L21.694 38.6767C21.8419 38.831 22.0304 38.9361 22.2357 38.9788C22.4411 39.0214 22.6539 38.9996 22.8473 38.9161C23.0408 38.8326 23.206 38.6912 23.3222 38.5099C23.4384 38.3285 23.5002 38.1153 23.4999 37.8973V15.0996Z" stroke="#41744C" stroke-width="2" stroke-linecap="round" stroke-linejoin="round"/>
</svg>
