<svg width="32" height="41" viewBox="0 0 32 41" fill="none" xmlns="http://www.w3.org/2000/svg">
<path d="M21.9999 17.8127C22.9736 19.1645 23.4999 20.8087 23.4999 22.4984C23.4999 24.1882 22.9736 25.8324 21.9999 27.1842M27.0459 32.4385C28.2995 31.1331 29.2939 29.5835 29.9724 27.878C30.6508 26.1724 31 24.3445 31 22.4984C31 20.6524 30.6508 18.8244 29.9724 17.1189C29.2939 15.4134 28.2995 13.8637 27.0459 12.5584M2.49999 1.5L31 40M14.4999 11.0996C14.4996 10.882 14.4375 10.6694 14.3212 10.4886C14.205 10.3078 14.04 10.1669 13.8469 10.0837C13.6539 10.0005 13.4415 9.97871 13.2366 10.0211C13.0316 10.0634 12.8433 10.168 12.6955 10.3217L7.61947 15.6057C7.42358 15.8109 7.19053 15.9736 6.93382 16.0843C6.6771 16.195 6.40184 16.2516 6.12398 16.2508H2.49999C2.10217 16.2508 1.72064 16.4153 1.43934 16.7082C1.15803 17.0012 1 17.3984 1 17.8127V27.1842C1 27.5984 1.15803 27.9957 1.43934 28.2886C1.72064 28.5815 2.10217 28.7461 2.49999 28.7461H6.12398C6.40184 28.7453 6.6771 28.8018 6.93382 28.9126C7.19053 29.0233 7.42358 29.186 7.61947 29.3912L12.694 34.6767C12.8419 34.831 13.0304 34.9361 13.2357 34.9788C13.4411 35.0214 13.6539 34.9996 13.8473 34.9161C14.0408 34.8326 14.206 34.6912 14.3222 34.5099C14.4384 34.3285 14.5002 34.1153 14.4999 33.8973V11.0996Z" stroke="#41744C" stroke-width="2" stroke-linecap="round" stroke-linejoin="round"/>
</svg>
