<svg width="49" height="51" viewBox="0 0 49 51" fill="none" xmlns="http://www.w3.org/2000/svg">
<path d="M30.9999 22.3127C31.9736 23.6645 32.4999 25.3087 32.4999 26.9984C32.4999 28.6882 31.9736 30.3324 30.9999 31.6842M36.0459 36.9385C37.2995 35.6331 38.2939 34.0835 38.9724 32.378C39.6508 30.6724 40 28.8445 40 26.9984C40 25.1524 39.6508 23.3244 38.9724 21.6189C38.2939 19.9134 37.2995 18.3637 36.0459 17.0584M11.5 6L25.75 25.25L40 44.5M23.4999 15.5996C23.4996 15.382 23.4375 15.1694 23.3212 14.9886C23.205 14.8078 23.04 14.6669 22.8469 14.5837C22.6539 14.5005 22.4415 14.4787 22.2366 14.5211C22.0316 14.5634 21.8433 14.668 21.6955 14.8217L16.6195 20.1057C16.4236 20.3109 16.1905 20.4736 15.9338 20.5843C15.6771 20.695 15.4018 20.7516 15.124 20.7508H11.5C11.1022 20.7508 10.7206 20.9153 10.4393 21.2082C10.158 21.5012 10 21.8984 10 22.3127V31.6842C10 32.0984 10.158 32.4957 10.4393 32.7886C10.7206 33.0815 11.1022 33.2461 11.5 33.2461H15.124C15.4018 33.2453 15.6771 33.3018 15.9338 33.4126C16.1905 33.5233 16.4236 33.686 16.6195 33.8912L21.694 39.1767C21.8419 39.331 22.0304 39.4361 22.2357 39.4788C22.4411 39.5214 22.6539 39.4996 22.8473 39.4161C23.0408 39.3326 23.206 39.1912 23.3222 39.0099C23.4384 38.8285 23.5002 38.6153 23.4999 38.3973V15.5996Z" stroke="#41744C" stroke-width="2" stroke-linecap="round" stroke-linejoin="round"/>
</svg>
