<svg width="29" height="28" viewBox="0 0 29 28" fill="none" xmlns="http://www.w3.org/2000/svg">
<g clip-path="url(#clip0_12_140)">
<path d="M26.1903 21.7356L25.9276 21.5038C25.1823 20.8397 24.5299 20.0782 23.9881 19.2398C23.3964 18.0827 23.0418 16.8192 22.945 15.5232V11.7061C22.9501 9.67059 22.2118 7.70323 20.8686 6.1737C19.5255 4.64417 17.67 3.65775 15.6509 3.39979V2.40302C15.6509 2.12944 15.5422 1.86707 15.3488 1.67362C15.1553 1.48017 14.8929 1.37149 14.6193 1.37149C14.3458 1.37149 14.0834 1.48017 13.8899 1.67362C13.6965 1.86707 13.5878 2.12944 13.5878 2.40302V3.41524C11.5868 3.6918 9.75373 4.68418 8.42824 6.20857C7.10274 7.73296 6.3746 9.68607 6.37867 11.7061V15.5232C6.2819 16.8192 5.92725 18.0827 5.33555 19.2398C4.80308 20.0761 4.16122 20.8375 3.42702 21.5038L3.16431 21.7356V23.9145H26.1903V21.7356Z" fill="#959595"/>
<path d="M12.6452 24.7259C12.713 25.2157 12.9557 25.6644 13.3285 25.9892C13.7013 26.314 14.179 26.4929 14.6735 26.4929C15.1679 26.4929 15.6457 26.314 16.0185 25.9892C16.3913 25.6644 16.634 25.2157 16.7018 24.7259H12.6452Z" fill="#959595"/>
</g>
<defs>
<clipPath id="clip0_12_140">
<rect width="27.8166" height="27.8166" fill="white" transform="translate(0.807678)"/>
</clipPath>
</defs>
</svg>
