<svg width="31" height="32" viewBox="0 0 31 32" fill="none" xmlns="http://www.w3.org/2000/svg">
<path d="M14.1711 25.6887H4.44445C3.7074 25.6887 3.00054 25.3959 2.47937 24.8748C1.9582 24.3536 1.66541 23.6467 1.66541 22.9097V9.0145C1.66541 8.27745 1.9582 7.57059 2.47937 7.04942C3.00054 6.52825 3.7074 6.23546 4.44445 6.23546H11.392M11.392 6.23546L7.22349 2.06689M11.392 6.23546L7.22349 10.404M16.9501 6.23546H26.6768C27.4138 6.23546 28.1207 6.52825 28.6419 7.04942C29.163 7.57059 29.4558 8.27745 29.4558 9.0145V22.9097C29.4558 23.6467 29.163 24.3536 28.6419 24.8748C28.1207 25.3959 27.4138 25.6887 26.6768 25.6887H19.7292M19.7292 25.6887L23.8977 29.8573M19.7292 25.6887L23.8977 21.5202M19.7292 15.9621C19.7292 18.2643 17.8628 20.1307 15.5606 20.1307C13.2584 20.1307 11.392 18.2643 11.392 15.9621C11.392 13.6599 13.2584 11.7935 15.5606 11.7935C17.8628 11.7935 19.7292 13.6599 19.7292 15.9621Z" stroke="#41744C" stroke-width="2.77904" stroke-linecap="round" stroke-linejoin="round"/>
</svg>
