<svg width="16" height="22" viewBox="0 0 16 22" fill="none" xmlns="http://www.w3.org/2000/svg">
<path d="M8 4C8 3.40666 8.17595 2.82664 8.50559 2.33329C8.83524 1.83994 9.30377 1.45543 9.85195 1.22836C10.4001 1.0013 11.0033 0.94189 11.5853 1.05765C12.1672 1.1734 12.7018 1.45912 13.1213 1.87868C13.5409 2.29824 13.8266 2.83279 13.9424 3.41473C14.0581 3.99667 13.9987 4.59987 13.7716 5.14805C13.5446 5.69623 13.1601 6.16477 12.6667 6.49441C12.1734 6.82405 11.5933 7 11 7M8 4C8 3.40666 7.82405 2.82664 7.49441 2.33329C7.16476 1.83994 6.69623 1.45543 6.14805 1.22836C5.59987 1.0013 4.99667 0.94189 4.41473 1.05765C3.83279 1.1734 3.29824 1.45912 2.87868 1.87868C2.45912 2.29824 2.1734 2.83279 2.05764 3.41473C1.94189 3.99667 2.0013 4.59987 2.22836 5.14805C2.45542 5.69623 2.83994 6.16477 3.33329 6.49441C3.82664 6.82405 4.40666 7 5 7M8 4V5M11 7C11.5933 7 12.1734 7.17595 12.6667 7.50559C13.1601 7.83524 13.5446 8.30377 13.7716 8.85195C13.9987 9.40013 14.0581 10.0033 13.9424 10.5853C13.8266 11.1672 13.5409 11.7018 13.1213 12.1213C12.7018 12.5409 12.1672 12.8266 11.5853 12.9424C11.0033 13.0581 10.4001 12.9987 9.85195 12.7716C9.30377 12.5446 8.83524 12.1601 8.50559 11.6667C8.17595 11.1734 8 10.5933 8 10M11 7H10M5 7C4.40666 7 3.82664 7.17595 3.33329 7.50559C2.83994 7.83524 2.45542 8.30377 2.22836 8.85195C2.0013 9.40013 1.94189 10.0033 2.05764 10.5853C2.1734 11.1672 2.45912 11.7018 2.87868 12.1213C3.29824 12.5409 3.83279 12.8266 4.41473 12.9424C4.99667 13.0581 5.59987 12.9987 6.14805 12.7716C6.69623 12.5446 7.16476 12.1601 7.49441 11.6667C7.82405 11.1734 8 10.5933 8 10M5 7H6M8 5C6.89543 5 6 5.89543 6 7M8 5C9.10457 5 10 5.89543 10 7M8 10V9M6 7C6 8.10457 6.89543 9 8 9M10 7C10 8.10457 9.10457 9 8 9M8 9V21M8 21C12.2 21 15 19.333 15 16C10.8 16 8 17.667 8 21ZM8 21C3.8 21 1 19.333 1 16C5.2 16 8 17.667 8 21Z" stroke="white" stroke-width="2" stroke-linecap="round" stroke-linejoin="round"/>
</svg>
