<svg width="20" height="20" viewBox="0 0 20 20" fill="none" xmlns="http://www.w3.org/2000/svg">
<g clip-path="url(#clip0_4_2)">
<path d="M9.5625 3.72727C9.5625 3.18787 9.72745 2.66058 10.0365 2.21208C10.3455 1.76358 10.7848 1.41403 11.2987 1.2076C11.8126 1.00118 12.3781 0.947171 12.9237 1.05241C13.4693 1.15764 13.9704 1.41738 14.3637 1.7988C14.7571 2.18022 15.0249 2.66617 15.1335 3.19521C15.242 3.72424 15.1863 4.27261 14.9734 4.77095C14.7606 5.2693 14.4001 5.69524 13.9375 5.99492C13.4751 6.29459 12.9312 6.45454 12.375 6.45454M9.5625 3.72727C9.5625 3.18787 9.39755 2.66058 9.08851 2.21208C8.77946 1.76358 8.34022 1.41403 7.8263 1.2076C7.31238 1.00118 6.74688 0.947171 6.20131 1.05241C5.65574 1.15764 5.1546 1.41738 4.76126 1.7988C4.36793 2.18022 4.10006 2.66617 3.99154 3.19521C3.88302 3.72424 3.93872 4.27261 4.15159 4.77095C4.36446 5.2693 4.72494 5.69524 5.18746 5.99492C5.64998 6.29459 6.19374 6.45454 6.75 6.45454M9.5625 3.72727V4.63636M12.375 6.45454C12.9312 6.45454 13.4751 6.6145 13.9375 6.91417C14.4001 7.21385 14.7606 7.63979 14.9734 8.13813C15.1863 8.63648 15.242 9.18482 15.1335 9.71391C15.0249 10.2429 14.7571 10.7289 14.3637 11.1103C13.9704 11.4917 13.4693 11.7515 12.9237 11.8567C12.3781 11.9619 11.8126 11.9079 11.2987 11.7015C10.7848 11.4951 10.3455 11.1455 10.0365 10.697C9.72745 10.2485 9.5625 9.72118 9.5625 9.18182M12.375 6.45454H11.4375M6.75 6.45454C6.19374 6.45454 5.64998 6.6145 5.18746 6.91417C4.72494 7.21385 4.36446 7.63979 4.15159 8.13813C3.93872 8.63648 3.88302 9.18482 3.99154 9.71391C4.10006 10.2429 4.36793 10.7289 4.76126 11.1103C5.1546 11.4917 5.65574 11.7515 6.20131 11.8567C6.74688 11.9619 7.31238 11.9079 7.8263 11.7015C8.34022 11.4951 8.77946 11.1455 9.08851 10.697C9.39755 10.2485 9.5625 9.72118 9.5625 9.18182M6.75 6.45454H7.6875M9.5625 4.63636C8.52697 4.63636 7.6875 5.45039 7.6875 6.45454M9.5625 4.63636C10.598 4.63636 11.4375 5.45039 11.4375 6.45454M9.5625 9.18182V8.27273M11.4375 6.45454C11.4375 7.4587 10.598 8.27273 9.5625 8.27273M7.6875 6.45454C7.6875 7.4587 8.52697 8.27273 9.5625 8.27273M9.5625 8.27273V19.1818M9.5625 19.1818C13.5 19.1818 16.125 17.6664 16.125 14.6364C12.1875 14.6364 9.5625 16.1518 9.5625 19.1818ZM9.5625 19.1818C5.625 19.1818 3 17.6664 3 14.6364C6.9375 14.6364 9.5625 16.1518 9.5625 19.1818Z" stroke="#41744C" stroke-width="2" stroke-linecap="round" stroke-linejoin="round"/>
</g>
<defs>
<clipPath id="clip0_4_2">
<rect width="20" height="20" fill="white"/>
</clipPath>
</defs>
</svg>
