<svg width="21" height="21" viewBox="0 0 21 21" fill="none" xmlns="http://www.w3.org/2000/svg">
<path d="M19.81 10.6773L11.0771 0.974098C10.7094 0.564623 10.003 0.564623 9.63522 0.974098L0.902341 10.6773C0.776642 10.8166 0.694134 10.9895 0.66485 11.1748C0.635565 11.3602 0.660765 11.5501 0.737387 11.7214C0.892638 12.0716 1.24001 12.2968 1.62329 12.2968H3.56393V19.089C3.56393 19.3463 3.66616 19.5931 3.84813 19.7751C4.0301 19.9571 4.2769 20.0593 4.53425 20.0593H7.44521C7.70255 20.0593 7.94936 19.9571 8.13133 19.7751C8.3133 19.5931 8.41553 19.3463 8.41553 19.089V15.2077H12.2968V19.089C12.2968 19.3463 12.399 19.5931 12.581 19.7751C12.763 19.9571 13.0098 20.0593 13.2671 20.0593H16.1781C16.4354 20.0593 16.6822 19.9571 16.8642 19.7751C17.0462 19.5931 17.1484 19.3463 17.1484 19.089V12.2968H19.089C19.277 12.2976 19.4611 12.2437 19.6189 12.1417C19.7767 12.0396 19.9014 11.8939 19.9778 11.7222C20.0543 11.5506 20.0791 11.3603 20.0493 11.1748C20.0195 10.9893 19.9363 10.8164 19.81 10.6773Z" fill="#41744C"/>
</svg>
