<svg width="18" height="18" viewBox="0 0 18 18" fill="none" xmlns="http://www.w3.org/2000/svg">
<path d="M17.7645 9.64175L9.99737 1.01161C9.67029 0.647416 9.04201 0.647416 8.71493 1.01161L0.947809 9.64175C0.836011 9.76567 0.762628 9.91941 0.736581 10.0843C0.710535 10.2491 0.732949 10.418 0.801097 10.5703C0.939179 10.8819 1.24814 11.0821 1.58903 11.0821H3.31506V17.1232C3.31506 17.3521 3.40598 17.5716 3.56783 17.7335C3.72967 17.8953 3.94918 17.9862 4.17807 17.9862H6.76711C6.996 17.9862 7.21551 17.8953 7.37735 17.7335C7.5392 17.5716 7.63012 17.3521 7.63012 17.1232V13.6712H11.0822V17.1232C11.0822 17.3521 11.1731 17.5716 11.3349 17.7335C11.4968 17.8953 11.7163 17.9862 11.9452 17.9862H14.5342C14.7631 17.9862 14.9826 17.8953 15.1445 17.7335C15.3063 17.5716 15.3972 17.3521 15.3972 17.1232V11.0821H17.1233C17.2904 11.0828 17.4541 11.0349 17.5945 10.9442C17.7349 10.8534 17.8458 10.7238 17.9138 10.5711C17.9818 10.4184 18.0038 10.2493 17.9773 10.0842C17.9508 9.91921 17.8769 9.76547 17.7645 9.64175V9.64175Z" fill="white"/>
</svg>
