<svg width="31" height="31" viewBox="0 0 31 31" fill="none" xmlns="http://www.w3.org/2000/svg">
<path d="M1.75 7.73062V4.62288C1.75 3.79866 2.07742 3.00819 2.66024 2.42537C3.24305 1.84256 4.03352 1.51514 4.85774 1.51514H7.96549M23.5042 1.51514H26.612C27.4362 1.51514 28.2266 1.84256 28.8095 2.42537C29.3923 3.00819 29.7197 3.79866 29.7197 4.62288V7.73062M29.7197 23.2693V26.3771C29.7197 27.2013 29.3923 27.9918 28.8095 28.5746C28.2266 29.1574 27.4362 29.4848 26.612 29.4848H23.5042M7.96549 29.4848H4.85774C4.03352 29.4848 3.24305 29.1574 2.66024 28.5746C2.07742 27.9918 1.75 27.2013 1.75 26.3771V23.2693M21.9503 21.7155L18.998 18.7631M20.3965 15.5C20.3965 18.0745 18.3094 20.1616 15.7348 20.1616C13.1603 20.1616 11.0732 18.0745 11.0732 15.5C11.0732 12.9254 13.1603 10.8384 15.7348 10.8384C18.3094 10.8384 20.3965 12.9254 20.3965 15.5Z" stroke="#41744C" stroke-width="2.15152" stroke-linecap="round" stroke-linejoin="round"/>
</svg>
